# xmcd
# Track frame offsets:
# 182
# 13305
# 26077
# 41650
# 59837
# 74232
# 90872
# 104317
# 120945
# 140587
# 158315
# 171057
# 196407
#
# Disc length: 2876 seconds
# Revision: 0
# Processed by: cddbd v1.4PL0 Copyright (c) Steve Scherf et al.
# Submitted via: VisiTrax 2.9.5.180 - For more info visit www.synapsa.com
#
DISCID=b00b3a0d
DTITLE=Johnny McEvoy - The original
DYEAR=1900
DGENRE=Irsk
TTITLE0=Runaround angel
TTITLE1=As soon as I can
TTITLE2=Play the game
TTITLE3=No other love I'll know
TTITLE4=Leaves in the wind
TTITLE5=I can't believe
TTITLE6=The band played Red River Valley
TTITLE7=Lincoln's army
TTITLE8=Rich man's garden
TTITLE9=The wheels go round
TTITLE10=Tonight you're with another
TTITLE11=Michael
TTITLE12=Long way from the sun
EXTD=
EXTT0=
EXTT1=
EXTT2=
EXTT3=
EXTT4=
EXTT5=
EXTT6=
EXTT7=
EXTT8=
EXTT9=
EXTT10=
EXTT11=
EXTT12=
PLAYORDER=
